<svg xmlns="http://www.w3.org/2000/svg" style="display:none" aria-hidden="true">
  <symbol id="i-bx-buildings" viewBox="0 0 24 24"><path d="M19 2H9c-1.103 0-2 .897-2 2v6H5c-1.103 0-2 .897-2 2v9a1 1 0 0 0 1 1h16a1 1 0 0 0 1-1V4c0-1.103-.897-2-2-2zM5 12h6v8H5v-8zm14 8h-6v-8c0-1.103-.897-2-2-2H9V4h10v16z"/><path d="M11 6h2v2h-2zm4 0h2v2h-2zm0 4.031h2V12h-2zM15 14h2v2h-2zm-8 .001h2v2H7z"/></symbol>
  <symbol id="i-bx-calendar" viewBox="0 0 24 24"><path d="M7 11h2v2H7zm0 4h2v2H7zm4-4h2v2h-2zm0 4h2v2h-2zm4-4h2v2h-2zm0 4h2v2h-2z"/><path d="M5 22h14c1.103 0 2-.897 2-2V6c0-1.103-.897-2-2-2h-2V2h-2v2H9V2H7v2H5c-1.103 0-2 .897-2 2v14c0 1.103.897 2 2 2zM19 8l.001 12H5V8h14z"/></symbol>
  <symbol id="i-bx-code-alt" viewBox="0 0 24 24"><path d="m7.375 16.781 1.25-1.562L4.601 12l4.024-3.219-1.25-1.562-5 4a1 1 0 0 0 0 1.562l5 4zm9.25-9.562-1.25 1.562L19.399 12l-4.024 3.219 1.25 1.562 5-4a1 1 0 0 0 0-1.562l-5-4zm-1.649-4.003-4 18-1.953-.434 4-18z"/></symbol>
  <symbol id="i-bx-cookie" viewBox="0 0 24 24"><path d="M21.598 11.064a1.006 1.006 0 0 0-.854-.172A2.938 2.938 0 0 1 20 11c-1.654 0-3-1.346-3.003-2.937.005-.034.016-.136.017-.17a.998.998 0 0 0-1.254-1.006A2.963 2.963 0 0 1 15 7c-1.654 0-3-1.346-3-3 0-.217.031-.444.099-.716a1 1 0 0 0-1.067-1.236A9.956 9.956 0 0 0 2 12c0 5.514 4.486 10 10 10s10-4.486 10-10c0-.049-.003-.097-.007-.16a1.004 1.004 0 0 0-.395-.776zM12 20c-4.411 0-8-3.589-8-8a7.962 7.962 0 0 1 6.006-7.75A5.006 5.006 0 0 0 15 9l.101-.001a5.007 5.007 0 0 0 4.837 4C19.444 16.941 16.073 20 12 20z"/><circle cx="12.5" cy="11.5" r="1.5"/><circle cx="8.5" cy="8.5" r="1.5"/><circle cx="7.5" cy="12.5" r="1.5"/><circle cx="15.5" cy="15.5" r="1.5"/><circle cx="10.5" cy="16.5" r="1.5"/></symbol>
  <symbol id="i-bx-data" viewBox="0 0 24 24"><path d="M20 17V7c0-2.168-3.663-4-8-4S4 4.832 4 7v10c0 2.168 3.663 4 8 4s8-1.832 8-4zM12 5c3.691 0 5.931 1.507 6 1.994C17.931 7.493 15.691 9 12 9S6.069 7.493 6 7.006C6.069 6.507 8.309 5 12 5zM6 9.607C7.479 10.454 9.637 11 12 11s4.521-.546 6-1.393v2.387c-.069.499-2.309 2.006-6 2.006s-5.931-1.507-6-2V9.607zM6 17v-2.393C7.479 15.454 9.637 16 12 16s4.521-.546 6-1.393v2.387c-.069.499-2.309 2.006-6 2.006s-5.931-1.507-6-2z"/></symbol>
  <symbol id="i-bx-download" viewBox="0 0 24 24"><path d="m12 16 4-5h-3V4h-2v7H8z"/><path d="M20 18H4v-7H2v7c0 1.103.897 2 2 2h16c1.103 0 2-.897 2-2v-7h-2v7z"/></symbol>
  <symbol id="i-bx-envelope" viewBox="0 0 24 24"><path d="M20 4H4c-1.103 0-2 .897-2 2v12c0 1.103.897 2 2 2h16c1.103 0 2-.897 2-2V6c0-1.103-.897-2-2-2zm0 2v.511l-8 6.223-8-6.222V6h16zM4 18V9.044l7.386 5.745a.994.994 0 0 0 1.228 0L20 9.044 20.002 18H4z"/></symbol>
  <symbol id="i-bx-home" viewBox="0 0 24 24"><path d="M3 13h1v7c0 1.103.897 2 2 2h12c1.103 0 2-.897 2-2v-7h1a1 1 0 0 0 .707-1.707l-9-9a.999.999 0 0 0-1.414 0l-9 9A1 1 0 0 0 3 13zm7 7v-5h4v5h-4zm2-15.586 6 6V15l.001 5H16v-5c0-1.103-.897-2-2-2h-4c-1.103 0-2 .897-2 2v5H6v-9.586l6-6z"/></symbol>
  <symbol id="i-bx-image" viewBox="0 0 24 24"><circle cx="7.499" cy="9.5" r="1.5"/><path d="m10.499 14-1.5-2-3 4h12l-4.5-6z"/><path d="M19.999 4h-16c-1.103 0-2 .897-2 2v12c0 1.103.897 2 2 2h16c1.103 0 2-.897 2-2V6c0-1.103-.897-2-2-2zm-16 14V6h16l.002 12H3.999z"/></symbol>
  <symbol id="i-bx-link-external" viewBox="0 0 24 24"><path d="m13 3 3.293 3.293-7 7 1.414 1.414 7-7L21 11V3z"/><path d="M19 19H5V5h7l-2-2H5c-1.103 0-2 .897-2 2v14c0 1.103.897 2 2 2h14c1.103 0 2-.897 2-2v-5l-2-2v7z"/></symbol>
  <symbol id="i-bx-map" viewBox="0 0 24 24"><path d="M12 14c2.206 0 4-1.794 4-4s-1.794-4-4-4-4 1.794-4 4 1.794 4 4 4zm0-6c1.103 0 2 .897 2 2s-.897 2-2 2-2-.897-2-2 .897-2 2-2z"/><path d="M11.42 21.814a.998.998 0 0 0 1.16 0C12.884 21.599 20.029 16.44 20 10c0-4.411-3.589-8-8-8S4 5.589 4 9.995c-.029 6.445 7.116 11.604 7.42 11.819zM12 4c3.309 0 6 2.691 6 6.005.021 4.438-4.388 8.423-6 9.73-1.611-1.308-6.021-5.294-6-9.735 0-3.309 2.691-6 6-6z"/></symbol>
  <symbol id="i-bx-menu" viewBox="0 0 24 24"><path d="M4 6h16v2H4zm0 5h16v2H4zm0 5h16v2H4z"/></symbol>
  <symbol id="i-bx-moon" viewBox="0 0 24 24"><path d="M20.742 13.045a8.088 8.088 0 0 1-2.077.271c-2.135 0-4.14-.83-5.646-2.336a8.025 8.025 0 0 1-2.064-7.723A1 1 0 0 0 9.73 2.034a10.014 10.014 0 0 0-4.489 2.582c-3.898 3.898-3.898 10.243 0 14.143a9.937 9.937 0 0 0 7.072 2.93 9.93 9.93 0 0 0 7.07-2.929 10.007 10.007 0 0 0 2.583-4.491 1.001 1.001 0 0 0-1.224-1.224zm-2.772 4.301a7.947 7.947 0 0 1-5.656 2.343 7.953 7.953 0 0 1-5.658-2.344c-3.118-3.119-3.118-8.195 0-11.314a7.923 7.923 0 0 1 2.06-1.483 10.027 10.027 0 0 0 2.89 7.848 9.972 9.972 0 0 0 7.848 2.891 8.036 8.036 0 0 1-1.484 2.059z"/></symbol>
  <symbol id="i-bx-paint" viewBox="0 0 24 24"><path d="M7.061 22c1.523 0 2.84-.543 3.91-1.613 1.123-1.123 1.707-2.854 1.551-4.494l8.564-8.564a3.123 3.123 0 0 0-.002-4.414c-1.178-1.18-3.234-1.18-4.412 0l-8.884 8.884c-1.913.169-3.807 1.521-3.807 3.919 0 .303.021.588.042.86.08 1.031.109 1.418-1.471 2.208a1.001 1.001 0 0 0-.122 1.717C2.52 20.563 4.623 22 7.061 22c-.001 0-.001 0 0 0zM18.086 4.328a1.144 1.144 0 0 1 1.586.002 1.12 1.12 0 0 1 0 1.584L12 13.586 10.414 12l7.672-7.672zM6.018 16.423c-.018-.224-.037-.458-.037-.706 0-1.545 1.445-1.953 2.21-1.953.356 0 .699.073.964.206.945.475 1.26 1.293 1.357 1.896.177 1.09-.217 2.368-.956 3.107C8.865 19.664 8.049 20 7.061 20H7.06c-.75 0-1.479-.196-2.074-.427 1.082-.973 1.121-1.989 1.032-3.15z"/></symbol>
  <symbol id="i-bx-palette" viewBox="0 0 24 24"><path d="M13.4 2.096a10.08 10.08 0 0 0-8.937 3.331A10.054 10.054 0 0 0 2.096 13.4c.53 3.894 3.458 7.207 7.285 8.246a9.982 9.982 0 0 0 2.618.354l.142-.001a3.001 3.001 0 0 0 2.516-1.426 2.989 2.989 0 0 0 .153-2.879l-.199-.416a1.919 1.919 0 0 1 .094-1.912 2.004 2.004 0 0 1 2.576-.755l.412.197c.412.198.85.299 1.301.299A3.022 3.022 0 0 0 22 12.14a9.935 9.935 0 0 0-.353-2.76c-1.04-3.826-4.353-6.754-8.247-7.284zm5.158 10.909-.412-.197c-1.828-.878-4.07-.198-5.135 1.494-.738 1.176-.813 2.576-.204 3.842l.199.416a.983.983 0 0 1-.051.961.992.992 0 0 1-.844.479h-.112a8.061 8.061 0 0 1-2.095-.283c-3.063-.831-5.403-3.479-5.826-6.586-.321-2.355.352-4.623 1.893-6.389a8.002 8.002 0 0 1 7.16-2.664c3.107.423 5.755 2.764 6.586 5.826.198.73.293 1.474.282 2.207-.012.807-.845 1.183-1.441.894z"/><circle cx="7.5" cy="14.5" r="1.5"/><circle cx="7.5" cy="10.5" r="1.5"/><circle cx="10.5" cy="7.5" r="1.5"/><circle cx="14.5" cy="7.5" r="1.5"/></symbol>
  <symbol id="i-bx-phone" viewBox="0 0 24 24"><path d="M17.707 12.293a.999.999 0 0 0-1.414 0l-1.594 1.594c-.739-.22-2.118-.72-2.992-1.594s-1.374-2.253-1.594-2.992l1.594-1.594a.999.999 0 0 0 0-1.414l-4-4a.999.999 0 0 0-1.414 0L3.581 5.005c-.38.38-.594.902-.586 1.435.023 1.424.4 6.37 4.298 10.268s8.844 4.274 10.269 4.298h.028c.528 0 1.027-.208 1.405-.586l2.712-2.712a.999.999 0 0 0 0-1.414l-4-4.001zm-.127 6.712c-1.248-.021-5.518-.356-8.873-3.712-3.366-3.366-3.692-7.651-3.712-8.874L7 4.414 9.586 7 8.293 8.293a1 1 0 0 0-.272.912c.024.115.611 2.842 2.271 4.502s4.387 2.247 4.502 2.271a.991.991 0 0 0 .912-.271L17 14.414 19.586 17l-2.006 2.005z"/></symbol>
  <symbol id="i-bx-play-circle" viewBox="0 0 24 24"><path d="M12 2C6.486 2 2 6.486 2 12s4.486 10 10 10 10-4.486 10-10S17.514 2 12 2zm0 18c-4.411 0-8-3.589-8-8s3.589-8 8-8 8 3.589 8 8-3.589 8-8 8z"/><path d="m9 17 8-5-8-5z"/></symbol>
  <symbol id="i-bx-right-arrow-alt" viewBox="0 0 24 24"><path d="m11.293 17.293 1.414 1.414L19.414 12l-6.707-6.707-1.414 1.414L15.586 11H6v2h9.586z"/></symbol>
  <symbol id="i-bx-send" viewBox="0 0 24 24"><path d="m21.426 11.095-17-8A.999.999 0 0 0 3.03 4.242L4.969 12 3.03 19.758a.998.998 0 0 0 1.396 1.147l17-8a1 1 0 0 0 0-1.81zM5.481 18.197l.839-3.357L12 12 6.32 9.16l-.839-3.357L18.651 12l-13.17 6.197z"/></symbol>
  <symbol id="i-bx-server" viewBox="0 0 24 24"><path d="M20 3H4a2 2 0 0 0-2 2v4a2 2 0 0 0 2 2h16a2 2 0 0 0 2-2V5a2 2 0 0 0-2-2zM4 9V5h16v4zm16 4H4a2 2 0 0 0-2 2v4a2 2 0 0 0 2 2h16a2 2 0 0 0 2-2v-4a2 2 0 0 0-2-2zM4 19v-4h16v4z"/><path d="M17 6h2v2h-2zm-3 0h2v2h-2zm3 10h2v2h-2zm-3 0h2v2h-2z"/></symbol>
  <symbol id="i-bx-shield" viewBox="0 0 24 24"><path d="M20.995 6.903a.997.997 0 0 0-.547-.797l-7.973-4a.997.997 0 0 0-.895-.002l-8.027 4c-.297.15-.502.437-.544.767-.013.097-1.145 9.741 8.541 15.008a.995.995 0 0 0 .969-.009c9.307-5.259 8.514-14.573 8.476-14.967zm-8.977 12.944c-6.86-4.01-7.14-10.352-7.063-12.205l7.071-3.523 6.998 3.511c.005 1.87-.481 8.243-7.006 12.217z"/></symbol>
  <symbol id="i-bx-sun" viewBox="0 0 24 24"><path d="M6.993 12c0 2.761 2.246 5.007 5.007 5.007s5.007-2.246 5.007-5.007S14.761 6.993 12 6.993 6.993 9.239 6.993 12zM12 8.993c1.658 0 3.007 1.349 3.007 3.007S13.658 15.007 12 15.007 8.993 13.658 8.993 12 10.342 8.993 12 8.993zM10.998 19h2v3h-2zm0-17h2v3h-2zm-9 9h3v2h-3zm17 0h3v2h-3zM4.219 18.363l2.12-2.122 1.415 1.414-2.12 2.122zM16.24 6.344l2.122-2.122 1.414 1.414-2.122 2.122zM6.342 7.759 4.22 5.637l1.415-1.414 2.12 2.122zm13.434 10.605-1.414 1.414-2.122-2.122 1.414-1.414z"/></symbol>
  <symbol id="i-bx-user" viewBox="0 0 24 24"><path d="M12 2a5 5 0 1 0 5 5 5 5 0 0 0-5-5zm0 8a3 3 0 1 1 3-3 3 3 0 0 1-3 3zm9 11v-1a7 7 0 0 0-7-7h-4a7 7 0 0 0-7 7v1h2v-1a5 5 0 0 1 5-5h4a5 5 0 0 1 5 5v1z"/></symbol>
  <symbol id="i-bx-video" viewBox="0 0 24 24"><path d="M18 7c0-1.103-.897-2-2-2H4c-1.103 0-2 .897-2 2v10c0 1.103.897 2 2 2h12c1.103 0 2-.897 2-2v-3.333L22 17V7l-4 3.333V7zm-1.998 10H4V7h12l.001 4.999L16 12l.001.001.001 4.999z"/></symbol>
  <symbol id="i-bx-x" viewBox="0 0 24 24"><path d="m16.192 6.344-4.243 4.242-4.242-4.242-1.414 1.414L10.535 12l-4.242 4.242 1.414 1.414 4.242-4.242 4.243 4.242 1.414-1.414L13.364 12l4.242-4.242z"/></symbol>
  <symbol id="i-bxl-behance" viewBox="0 0 24 24"><path d="M7.803 5.731c.589 0 1.119.051 1.605.155.483.103.895.273 1.243.508.343.235.611.547.804.939.187.387.28.871.28 1.443 0 .62-.14 1.138-.421 1.551-.283.414-.7.753-1.256 1.015.757.219 1.318.602 1.69 1.146.374.549.557 1.206.557 1.976 0 .625-.119 1.162-.358 1.613a3.11 3.11 0 0 1-.974 1.114 4.315 4.315 0 0 1-1.399.64 6.287 6.287 0 0 1-1.609.206H2V5.731h5.803zm-.351 4.972c.48 0 .878-.114 1.192-.345.312-.228.463-.604.463-1.119 0-.286-.051-.522-.151-.707a1.114 1.114 0 0 0-.417-.428 1.683 1.683 0 0 0-.597-.215 3.609 3.609 0 0 0-.697-.061H4.71v2.875h2.742zm.151 5.239c.267 0 .521-.023.76-.077.241-.052.455-.136.637-.261.182-.12.332-.283.44-.491.109-.206.162-.475.162-.798 0-.634-.179-1.085-.533-1.358-.355-.27-.831-.404-1.414-.404H4.71v3.39h2.893zm8.565-.041c.367.358.896.538 1.584.538.493 0 .919-.125 1.278-.373.354-.249.57-.515.653-.79h2.155c-.346 1.072-.871 1.838-1.589 2.299-.709.463-1.572.693-2.58.693-.702 0-1.334-.113-1.9-.337a4.033 4.033 0 0 1-1.439-.958 4.37 4.37 0 0 1-.905-1.485 5.433 5.433 0 0 1-.32-1.899c0-.666.111-1.289.329-1.864a4.376 4.376 0 0 1 .934-1.493c.405-.42.885-.751 1.444-.994a4.634 4.634 0 0 1 1.858-.362c.754 0 1.413.146 1.979.44a3.967 3.967 0 0 1 1.39 1.182c.363.493.622 1.058.783 1.691.161.632.217 1.292.171 1.983h-6.431c.001.704.238 1.371.606 1.729zm2.812-4.681c-.291-.322-.783-.496-1.385-.496-.391 0-.714.065-.974.199a1.97 1.97 0 0 0-.62.491 1.772 1.772 0 0 0-.328.628 2.82 2.82 0 0 0-.111.587h3.982c-.058-.624-.272-1.085-.564-1.409zm-3.918-4.663h4.989v1.215h-4.989z"/></symbol>
  <symbol id="i-bxl-instagram-alt" viewBox="0 0 24 24"><path d="M20.947 8.305a6.53 6.53 0 0 0-.419-2.216 4.61 4.61 0 0 0-2.633-2.633 6.606 6.606 0 0 0-2.186-.42c-.962-.043-1.267-.055-3.709-.055s-2.755 0-3.71.055a6.606 6.606 0 0 0-2.185.42 4.607 4.607 0 0 0-2.633 2.633 6.554 6.554 0 0 0-.419 2.185c-.043.963-.056 1.268-.056 3.71s0 2.754.056 3.71c.015.748.156 1.486.419 2.187a4.61 4.61 0 0 0 2.634 2.632 6.584 6.584 0 0 0 2.185.45c.963.043 1.268.056 3.71.056s2.755 0 3.71-.056a6.59 6.59 0 0 0 2.186-.419 4.615 4.615 0 0 0 2.633-2.633c.263-.7.404-1.438.419-2.187.043-.962.056-1.267.056-3.71-.002-2.442-.002-2.752-.058-3.709zm-8.953 8.297c-2.554 0-4.623-2.069-4.623-4.623s2.069-4.623 4.623-4.623a4.623 4.623 0 0 1 0 9.246zm4.807-8.339a1.077 1.077 0 0 1-1.078-1.078 1.077 1.077 0 1 1 2.155 0c0 .596-.482 1.078-1.077 1.078z"/><circle cx="11.994" cy="11.979" r="3.003"/></symbol>
  <symbol id="i-bxl-linkedin-square" viewBox="0 0 24 24"><path d="M20 3H4a1 1 0 0 0-1 1v16a1 1 0 0 0 1 1h16a1 1 0 0 0 1-1V4a1 1 0 0 0-1-1zM8.339 18.337H5.667v-8.59h2.672v8.59zM7.003 8.574a1.548 1.548 0 1 1 0-3.096 1.548 1.548 0 0 1 0 3.096zm11.335 9.763h-2.669V14.16c0-.996-.018-2.277-1.388-2.277-1.39 0-1.601 1.086-1.601 2.207v4.248h-2.667v-8.59h2.56v1.174h.037c.355-.675 1.227-1.387 2.524-1.387 2.704 0 3.203 1.778 3.203 4.092v4.71z"/></symbol>
  <symbol id="i-bxl-youtube" viewBox="0 0 24 24"><path d="M21.593 7.203a2.506 2.506 0 0 0-1.762-1.766C18.265 5.007 12 5 12 5s-6.264-.007-7.831.404a2.56 2.56 0 0 0-1.766 1.778c-.413 1.566-.417 4.814-.417 4.814s-.004 3.264.406 4.814c.23.857.905 1.534 1.763 1.765 1.582.43 7.83.437 7.83.437s6.265.007 7.831-.403a2.515 2.515 0 0 0 1.767-1.763c.414-1.565.417-4.812.417-4.812s.02-3.265-.407-4.831zM9.996 15.005l.005-6 5.207 3.005-5.212 2.995z"/></symbol>
  <symbol id="i-bx-bot" viewBox="0 0 24 24"><path d="M21.928 11.607c-.202-.488-.635-.605-.928-.633V8c0-1.103-.897-2-2-2h-6V4.61c.305-.274.5-.668.5-1.11a1.5 1.5 0 0 0-3 0c0 .442.195.836.5 1.11V6H5c-1.103 0-2 .897-2 2v2.997l-.082.006A1 1 0 0 0 1.99 12v2a1 1 0 0 0 1 1H3v5c0 1.103.897 2 2 2h14c1.103 0 2-.897 2-2v-5a1 1 0 0 0 1-1v-1.938a1.006 1.006 0 0 0-.072-.455zM5 20V8h14l.001 3.996L19 12v2l.001.005.001 5.995H5z"/><ellipse cx="8.5" cy="12" rx="1.5" ry="2"/><ellipse cx="15.5" cy="12" rx="1.5" ry="2"/><path d="M8 16h8v2H8z"/></symbol>
</svg>
